<svg width="256" height="256" viewBox="0 0 256 256" fill="none" xmlns="http://www.w3.org/2000/svg">
    <mask id="mask0" mask-type="alpha" maskUnits="userSpaceOnUse" x="11" y="36" width="234" height="220">
        <path d="M128 256C192.266 256 244.364 206.879 244.364 146.286C244.364 85.6922 192.266 36.5714 128 36.5714C63.7342 36.5714 11.6365 85.6922 11.6365 146.286C11.6365 206.879 63.7342 256 128 256Z" fill="white"/>
    </mask>
    <g mask="url(#mask0)">
        <path d="M128 256C192.266 256 244.364 206.879 244.364 146.286C244.364 85.6922 192.266 36.5714 128 36.5714C63.7342 36.5714 11.6365 85.6922 11.6365 146.286C11.6365 206.879 63.7342 256 128 256Z" fill="white"/>
        <path d="M244.364 36.5714H11.6365V256H244.364V36.5714Z" fill="white"/>
    </g>
    <mask id="mask1" mask-type="alpha" maskUnits="userSpaceOnUse" x="0" y="0" width="256" height="256">
        <path d="M11.6364 146.286C11.6364 206.879 63.7341 256 128 256C192.266 256 244.364 206.879 244.364 146.286H256V0H0V146.286H11.6364Z" fill="white"/>
    </mask>
    <g mask="url(#mask1)">
        <mask id="mask2" mask-type="alpha" maskUnits="userSpaceOnUse" x="31" y="32" width="194" height="224">
            <path d="M151.273 165.13V181.943H155.151C193.711 181.943 224.97 211.415 224.97 247.771V256H31.0303V247.771C31.0303 211.415 62.2889 181.943 100.848 181.943H104.727V165.13C88.0122 157.643 75.9973 142.342 73.9928 124.234C68.3445 123.481 64 118.905 64 113.371V100.571C64 95.1351 68.1935 90.6223 73.6969 89.7517V84.1143C73.6969 55.8373 98.0092 32.9143 128 32.9143C157.991 32.9143 182.303 55.8373 182.303 84.1143V89.7517C187.806 90.6223 192 95.1351 192 100.571V113.371C192 118.905 187.655 123.481 182.007 124.234C180.003 142.342 167.988 157.643 151.273 165.13Z" fill="white"/>
        </mask>
        <g mask="url(#mask2)">
            <path d="M151.273 165.13V181.943H155.151C193.711 181.943 224.97 211.415 224.97 247.771V256H31.0303V247.771C31.0303 211.415 62.2889 181.943 100.848 181.943H104.727V165.13C88.0122 157.643 75.9973 142.342 73.9928 124.234C68.3445 123.481 64 118.905 64 113.371V100.571C64 95.1351 68.1935 90.6223 73.6969 89.7517V84.1143C73.6969 55.8373 98.0092 32.9143 128 32.9143C157.991 32.9143 182.303 55.8373 182.303 84.1143V89.7517C187.806 90.6223 192 95.1351 192 100.571V113.371C192 118.905 187.655 123.481 182.007 124.234C180.003 142.342 167.988 157.643 151.273 165.13Z" fill="#D0C6AC"/>
            <path d="M287.03 32.9143H31.0303V288.914H287.03V32.9143Z" fill="#EDB98A"/>
            <path fill-rule="evenodd" clip-rule="evenodd" d="M182.303 105.143V126.171C182.303 154.448 157.991 177.371 128 177.371C98.0093 177.371 73.697 154.448 73.697 126.171V105.143V118.857C73.697 147.134 98.0093 170.057 128 170.057C157.991 170.057 182.303 147.134 182.303 118.857V105.143Z" fill="black" fill-opacity="0.1"/>
        </g>
        <mask id="mask3" mask-type="alpha" maskUnits="userSpaceOnUse" x="31" y="182" width="194" height="74">
            <path fill-rule="evenodd" clip-rule="evenodd" d="M160.931 182.212C196.787 184.983 224.97 213.298 224.97 247.819V256H31.0303V247.819C31.0303 212.985 59.7255 184.471 96.044 182.144C96.0148 182.485 96 182.829 96 183.175C96 194.021 110.544 202.814 128.485 202.814C146.426 202.814 160.97 194.021 160.97 183.175C160.97 182.852 160.957 182.531 160.931 182.212Z" fill="white"/>
        </mask>
        <g mask="url(#mask3)">
            <path fill-rule="evenodd" clip-rule="evenodd" d="M160.931 182.212C196.787 184.983 224.97 213.298 224.97 247.819V256H31.0303V247.819C31.0303 212.985 59.7255 184.471 96.044 182.144C96.0148 182.485 96 182.829 96 183.175C96 194.021 110.544 202.814 128.485 202.814C146.426 202.814 160.97 194.021 160.97 183.175C160.97 182.852 160.957 182.531 160.931 182.212Z" fill="#E6E6E6"/>
            <path d="M256 155.429H0V256H256V155.429Z" fill="#262E33"/>
            <g opacity="0.6">
                <g opacity="0.6">
                    <path opacity="0.6" d="M128.485 209.153C149.711 209.153 166.919 198.136 166.919 184.546C166.919 170.956 149.711 159.939 128.485 159.939C107.258 159.939 90.0508 170.956 90.0508 184.546C90.0508 198.136 107.258 209.153 128.485 209.153Z" fill="black" fill-opacity="0.16"/>
                </g>
            </g>
        </g>
        <path fill-rule="evenodd" clip-rule="evenodd" d="M114.424 136.229C114.424 143.298 120.502 149.029 128 149.029C135.498 149.029 141.576 143.298 141.576 136.229" fill="black" fill-opacity="0.7"/>
        <path fill-rule="evenodd" clip-rule="evenodd" d="M116.364 118.857C116.364 122.897 121.574 126.171 128 126.171C134.427 126.171 139.636 122.897 139.636 118.857" fill="black" fill-opacity="0.16"/>
        <path d="M102.788 107.886C106.001 107.886 108.606 105.43 108.606 102.4C108.606 99.3703 106.001 96.9143 102.788 96.9143C99.5746 96.9143 96.9697 99.3703 96.9697 102.4C96.9697 105.43 99.5746 107.886 102.788 107.886Z" fill="#226BB5" fill-opacity="0.64"/>
        <path d="M153.212 107.886C156.426 107.886 159.03 105.43 159.03 102.4C159.03 99.3703 156.426 96.9143 153.212 96.9143C149.999 96.9143 147.394 99.3703 147.394 102.4C147.394 105.43 149.999 107.886 153.212 107.886Z" fill="#226BB5" fill-opacity="0.64"/>
        <path d="M88.8536 90.6593C92.6499 85.6227 103.057 82.7985 112.022 84.8742C113.063 85.1151 114.113 84.5153 114.368 83.5345C114.624 82.5538 113.988 81.5635 112.947 81.3226C102.536 78.912 90.4845 82.1824 85.692 88.5407C85.0715 89.3639 85.2763 90.5055 86.1493 91.0905C87.0224 91.6755 88.2332 91.4825 88.8536 90.6593Z" fill="black" fill-opacity="0.6"/>
        <path d="M167.147 90.6593C163.351 85.6227 152.943 82.7985 143.978 84.8742C142.938 85.1151 141.888 84.5153 141.632 83.5345C141.377 82.5538 142.013 81.5635 143.053 81.3226C153.464 78.912 165.516 82.1824 170.309 88.5407C170.929 89.3639 170.724 90.5055 169.851 91.0905C168.978 91.6755 167.767 91.4825 167.147 90.6593Z" fill="black" fill-opacity="0.6"/>
        <mask id="mask4" mask-type="alpha" maskUnits="userSpaceOnUse" x="0" y="0" width="256" height="256">
            <path d="M256 0H0V256H256V0Z" fill="white"/>
        </mask>
        <g mask="url(#mask4)">
            <mask id="mask5" mask-type="alpha" maskUnits="userSpaceOnUse" x="70" y="15" width="115" height="76">
                <path fill-rule="evenodd" clip-rule="evenodd" d="M173.721 36.4987C171.045 33.9204 167.938 31.7319 164.916 29.5374C164.249 29.0536 163.571 28.5816 162.919 28.0794C162.771 27.9653 161.253 26.9401 161.071 26.5628C160.634 25.6551 160.887 26.3619 160.948 25.2787C161.024 23.909 163.986 20.0405 161.776 19.1534C160.803 18.7632 159.069 19.8015 158.136 20.1445C156.311 20.8157 154.465 21.3881 152.579 21.8817C153.482 20.1841 155.205 16.7858 151.967 17.6954C149.444 18.404 147.093 20.2258 144.558 21.0829C145.397 19.7865 148.751 15.7695 145.72 15.545C144.777 15.475 142.033 17.1432 141.017 17.499C137.975 18.565 134.869 19.254 131.675 19.7966C120.816 21.6418 108.119 21.1157 98.072 25.7769C90.3267 29.3702 82.6788 34.9458 78.2045 42.0457C73.892 48.8892 72.2791 56.3787 71.3764 64.2206C70.7141 69.9757 70.6603 75.9246 70.97 81.7006C71.0712 83.5929 71.297 92.3162 74.2128 89.6744C75.6655 88.3581 75.6548 83.0429 76.0207 81.2438C76.7488 77.6642 77.4497 74.0687 78.6637 70.6036C80.8031 64.4973 83.3268 57.9928 88.6564 53.7872C92.0766 51.0886 94.4783 47.4413 97.7512 44.7188C99.2215 43.4961 98.0996 43.6234 100.463 43.7838C102.051 43.8915 103.646 43.9326 105.238 43.9719C108.919 44.0621 112.605 44.039 116.287 44.0513C123.702 44.0765 131.083 44.1752 138.491 43.8093C141.783 43.6467 145.084 43.5587 148.367 43.2715C150.202 43.1111 153.456 42.0028 154.966 42.8497C156.347 43.6246 157.782 46.1548 158.775 47.191C161.119 49.6398 163.913 51.5101 166.654 53.5182C172.37 57.7051 175.256 62.9638 176.992 69.507C178.721 76.0258 178.236 82.0737 180.377 88.4889C180.753 89.6169 181.749 91.5611 182.977 89.8184C183.205 89.4948 183.146 87.7157 183.146 86.692C183.146 82.5596 184.256 79.4591 184.242 75.2998C184.188 62.6534 183.754 46.163 173.721 36.4987Z" fill="white"/>
            </mask>
            <g mask="url(#mask5)">
                <path fill-rule="evenodd" clip-rule="evenodd" d="M173.721 36.4987C171.045 33.9204 167.938 31.7319 164.916 29.5374C164.249 29.0536 163.571 28.5816 162.919 28.0794C162.771 27.9653 161.253 26.9401 161.071 26.5628C160.634 25.6551 160.887 26.3619 160.948 25.2787C161.024 23.909 163.986 20.0405 161.776 19.1534C160.803 18.7632 159.069 19.8015 158.136 20.1445C156.311 20.8157 154.465 21.3881 152.579 21.8817C153.482 20.1841 155.205 16.7858 151.967 17.6954C149.444 18.404 147.093 20.2258 144.558 21.0829C145.397 19.7865 148.751 15.7695 145.72 15.545C144.777 15.475 142.033 17.1432 141.017 17.499C137.975 18.565 134.869 19.254 131.675 19.7966C120.816 21.6418 108.119 21.1157 98.072 25.7769C90.3267 29.3702 82.6788 34.9458 78.2045 42.0457C73.892 48.8892 72.2791 56.3787 71.3764 64.2206C70.7141 69.9757 70.6603 75.9246 70.97 81.7006C71.0712 83.5929 71.297 92.3162 74.2128 89.6744C75.6655 88.3581 75.6548 83.0429 76.0207 81.2438C76.7488 77.6642 77.4497 74.0687 78.6637 70.6036C80.8031 64.4973 83.3268 57.9928 88.6564 53.7872C92.0766 51.0886 94.4783 47.4413 97.7512 44.7188C99.2215 43.4961 98.0996 43.6234 100.463 43.7838C102.051 43.8915 103.646 43.9326 105.238 43.9719C108.919 44.0621 112.605 44.039 116.287 44.0513C123.702 44.0765 131.083 44.1752 138.491 43.8093C141.783 43.6467 145.084 43.5587 148.367 43.2715C150.202 43.1111 153.456 42.0028 154.966 42.8497C156.347 43.6246 157.782 46.1548 158.775 47.191C161.119 49.6398 163.913 51.5101 166.654 53.5182C172.37 57.7051 175.256 62.9638 176.992 69.507C178.721 76.0258 178.236 82.0737 180.377 88.4889C180.753 89.6169 181.749 91.5611 182.977 89.8184C183.205 89.4948 183.146 87.7157 183.146 86.692C183.146 82.5596 184.256 79.4591 184.242 75.2998C184.188 62.6534 183.754 46.163 173.721 36.4987Z" fill="#1F3140"/>
                <path d="M255.03 0H-0.969727V256H255.03V0Z" fill="#4A312C"/>
            </g>
        </g>
    </g>
</svg>
